<svg width="60" height="60" viewBox="0 0 60 60" fill="none" xmlns="http://www.w3.org/2000/svg">
<path d="M0 30C0 13.4315 13.4315 0 30 0C46.5685 0 60 13.4315 60 30C60 46.5685 46.5685 60 30 60C13.4315 60 0 46.5685 0 30Z" fill="#E8EAEE"/>
<path d="M32.4838 29.5311C32.53 29.5311 32.5751 29.5175 32.6136 29.492C32.6521 29.4664 32.6821 29.4301 32.7 29.3875C32.7179 29.345 32.7229 29.2981 32.7142 29.2527C32.7056 29.2074 32.6837 29.1656 32.6514 29.1326L28.0576 24.4615C28.025 24.4284 27.9832 24.4057 27.9376 24.3964C27.892 24.387 27.8447 24.3915 27.8017 24.4091C27.7586 24.4268 27.7218 24.4569 27.6959 24.4955C27.67 24.5342 27.6562 24.5796 27.6563 24.6262V28.8279C27.6563 29.0144 27.7303 29.1933 27.8622 29.3251C27.9941 29.457 28.1729 29.5311 28.3594 29.5311H32.4838Z" fill="#424D5E"/>
<path d="M26.543 30.6445C26.3023 30.4071 26.1111 30.1243 25.9803 29.8126C25.8496 29.5008 25.7819 29.1662 25.7812 28.8281V23.4375H21.5625C20.5688 23.4404 19.6167 23.8365 18.9141 24.5391C18.2115 25.2417 17.8154 26.1938 17.8125 27.1875V40.3125C17.8125 41.3071 18.2076 42.2609 18.9108 42.9641C19.6141 43.6674 20.5679 44.0625 21.5625 44.0625H30C30.9946 44.0625 31.9484 43.6674 32.6516 42.9641C33.3549 42.2609 33.75 41.3071 33.75 40.3125V31.4062H28.3594C28.0213 31.4058 27.6866 31.3382 27.3748 31.2074C27.063 31.0767 26.7803 30.8854 26.543 30.6445Z" fill="#424D5E"/>
<path d="M36.7969 22.0311H40.9213C40.9675 22.0311 41.0126 22.0175 41.0511 21.992C41.0896 21.9664 41.1196 21.9301 41.1375 21.8875C41.1554 21.845 41.1604 21.7981 41.1517 21.7527C41.1431 21.7074 41.1212 21.6656 41.0889 21.6326L36.4951 16.9615C36.4625 16.9284 36.4207 16.9057 36.3751 16.8964C36.3295 16.887 36.2822 16.8915 36.2392 16.9091C36.1961 16.9268 36.1593 16.9569 36.1334 16.9955C36.1075 17.0342 36.0937 17.0796 36.0938 17.1262V21.3279C36.0938 21.5144 36.1678 21.6933 36.2997 21.8251C36.4316 21.957 36.6104 22.0311 36.7969 22.0311Z" fill="#424D5E"/>
<path d="M36.7969 23.9062C36.1147 23.901 35.462 23.6277 34.9796 23.1454C34.4973 22.663 34.224 22.0103 34.2187 21.3281V15.9375H27.8906C26.9586 15.9386 26.065 16.3093 25.4059 16.9684C24.7468 17.6275 24.3761 18.5211 24.375 19.4531V21.5625H26.843C27.158 21.5638 27.4696 21.6272 27.76 21.7493C28.0504 21.8714 28.3139 22.0496 28.5352 22.2738L34.9312 28.7777C35.3775 29.2305 35.6266 29.8413 35.6244 30.477V38.4375H38.7328C40.6377 38.4375 42.1869 36.8602 42.1869 34.9219V23.9062H36.7969Z" fill="#424D5E"/>
</svg>
