<svg width="60" height="60" viewBox="0 0 60 60" fill="none" xmlns="http://www.w3.org/2000/svg">
<path d="M0 30C0 13.4315 13.4315 0 30 0C46.5685 0 60 13.4315 60 30C60 46.5685 46.5685 60 30 60C13.4315 60 0 46.5685 0 30Z" fill="#E8EAEE"/>
<path d="M33.8669 40.6425C33.8566 40.6459 32.9087 40.9587 32.0859 40.9587C31.6316 40.9587 31.4482 40.8652 31.3899 40.8244C31.1019 40.6255 30.5671 40.2532 31.4825 38.4444L33.1967 35.0546C34.2132 33.0418 34.364 31.0953 33.6167 29.5721C33.0064 28.326 31.8356 27.4709 30.3254 27.1649C29.785 27.0552 29.2348 27 28.6832 27C25.5137 27 23.3795 28.836 23.2904 28.9142C23.1416 29.0443 23.0429 29.2215 23.0111 29.4157C22.9793 29.6099 23.0164 29.809 23.1161 29.9791C23.2158 30.1492 23.3719 30.2797 23.5578 30.3484C23.7437 30.4171 23.9479 30.4197 24.1355 30.3558C24.1441 30.3524 25.0937 30.0379 25.9165 30.0379C26.3674 30.0379 26.5491 30.1314 26.6056 30.1705C26.8953 30.3711 27.4319 30.7485 26.5182 32.5539L24.804 35.9454C23.7858 37.9599 23.6367 39.9064 24.384 41.4279C24.9943 42.674 26.1634 43.5291 27.677 43.8351C28.2153 43.9422 28.7672 44 29.3123 44C32.4836 44 34.6195 42.164 34.7086 42.0858C34.8575 41.956 34.9565 41.779 34.9887 41.585C35.0208 41.391 34.9841 41.1919 34.8849 41.0217C34.7856 40.8515 34.6299 40.7207 34.4443 40.6515C34.2587 40.5824 34.0546 40.5792 33.8669 40.6425Z" fill="#424D5E"/>
<path d="M32.5 25C34.9853 25 37 22.9853 37 20.5C37 18.0147 34.9853 16 32.5 16C30.0147 16 28 18.0147 28 20.5C28 22.9853 30.0147 25 32.5 25Z" fill="#424D5E"/>
</svg>
