<svg width="76" height="76" viewBox="0 0 76 76" fill="none" xmlns="http://www.w3.org/2000/svg">
<g filter="url(#filter0_d_413_18820)">
<path d="M8 34C8 17.4315 21.4316 4 38.0001 4C54.5686 4 68.0002 17.4315 68.0002 34C68.0002 50.5685 54.5686 64 38.0001 64C21.4316 64 8 50.5685 8 34Z" fill="white"/>
<path d="M40.9995 19.9999H34.9995V25.9999H40.9995V19.9999Z" fill="#EC1A3C"/>
<path d="M52 42H46V48H52V42Z" fill="#EC1A3C"/>
<path d="M30 42H24V48H30V42Z" fill="#EC1A3C"/>
<path d="M40.9995 31H34.9995V37H40.9995V31Z" fill="#EC1A3C"/>
<path d="M31 23C31 25.2439 29.2439 27 27 27C24.7561 27 23 25.1464 23 23C23 20.7561 24.7561 19 27 19C29.2439 19 31 20.7561 31 23Z" fill="#F37721"/>
<path d="M31 34.0001C31 36.244 29.2439 38.0001 27 38.0001C24.7561 38.0001 23 36.1464 23 34.0001C23 31.7562 24.7561 30.0001 27 30.0001C29.2439 30.0001 31 31.7562 31 34.0001Z" fill="#F37721"/>
<path d="M42 44.9999C42 47.2439 40.2439 49 38 49C35.7561 49 34 47.2439 34 44.9999C34 42.7561 35.7561 41 38 41C40.2439 41 42 42.7561 42 44.9999Z" fill="#F37721"/>
<path d="M53 23C53 25.2439 51.2438 27 49 27C46.7561 27 45 25.2439 45 23C45 20.7561 46.7561 19 49 19C51.1462 19 53 20.7561 53 23Z" fill="#F37721"/>
<path d="M53 34.0001C53 36.244 51.2438 38.0001 49 38.0001C46.7561 38.0001 45 36.244 45 34.0001C45 31.7562 46.7561 30.0001 49 30.0001C51.1462 30.0001 53 31.7562 53 34.0001Z" fill="#F37721"/>
</g>
<defs>
<filter id="filter0_d_413_18820" x="0" y="0" width="76" height="76" filterUnits="userSpaceOnUse" color-interpolation-filters="sRGB">
<feFlood flood-opacity="0" result="BackgroundImageFix"/>
<feColorMatrix in="SourceAlpha" type="matrix" values="0 0 0 0 0 0 0 0 0 0 0 0 0 0 0 0 0 0 127 0" result="hardAlpha"/>
<feOffset dy="4"/>
<feGaussianBlur stdDeviation="4"/>
<feComposite in2="hardAlpha" operator="out"/>
<feColorMatrix type="matrix" values="0 0 0 0 0 0 0 0 0 0 0 0 0 0 0 0 0 0 0.05 0"/>
<feBlend mode="normal" in2="BackgroundImageFix" result="effect1_dropShadow_413_18820"/>
<feBlend mode="normal" in="SourceGraphic" in2="effect1_dropShadow_413_18820" result="shape"/>
</filter>
</defs>
</svg>
