<svg width="60" height="60" viewBox="0 0 60 60" fill="none" xmlns="http://www.w3.org/2000/svg">
<rect width="60.0002" height="60" rx="30" fill="#E8EAEE"/>
<path d="M30.0799 41.2983C34.3093 41.2983 37.4521 38.6456 37.4521 35.0767C37.4521 32.3068 35.8114 30.2933 33.0629 29.8352V29.6648C35.2681 28.9936 36.6424 27.1825 36.6424 24.7216C36.6424 21.6321 34.2028 18.8835 30.1651 18.8835C26.3938 18.8835 23.2617 21.206 23.1339 24.6364H25.6907C25.7866 22.4631 27.8533 21.1847 30.1225 21.1847C32.5302 21.1847 34.0856 22.6442 34.0856 24.8494C34.0856 27.1506 32.2852 28.642 29.6964 28.642H27.9492V30.9858H29.6964C33.0096 30.9858 34.8526 32.669 34.8526 35.0767C34.8526 37.3885 32.8391 38.9545 30.0373 38.9545C27.5124 38.9545 25.5096 37.6548 25.3498 35.5455H22.6651C22.8249 38.9759 25.8505 41.2983 30.0799 41.2983Z" fill="#424D5E"/>
</svg>
