<svg width="60" height="60" viewBox="0 0 60 60" fill="none" xmlns="http://www.w3.org/2000/svg">
<rect width="60.0002" height="60" rx="30" fill="#E8EAEE"/>
<path d="M29.9507 41.2983C34.1056 41.2983 37.1524 38.2301 37.1524 34.054C37.1524 29.8246 34.2121 26.7244 30.2064 26.7244C28.7362 26.7244 27.3087 27.2464 26.4138 27.9602H26.286L27.053 21.5256H36.1723V19.1818H24.8371L23.5161 29.9205L25.9877 30.2188C26.8932 29.5689 28.4379 29.1001 29.7803 29.1108C32.5608 29.1321 34.5956 31.2415 34.5956 34.0966C34.5956 36.8984 32.6354 38.9545 29.9507 38.9545C27.7135 38.9545 25.9344 37.5163 25.732 35.5455H23.1752C23.335 38.8693 26.2007 41.2983 29.9507 41.2983Z" fill="#424D5E"/>
</svg>
