<svg width="60" height="60" viewBox="0 0 60 60" fill="none" xmlns="http://www.w3.org/2000/svg">
<path d="M0 30C0 13.4315 13.4315 0 30 0C46.5685 0 60 13.4315 60 30C60 46.5685 46.5685 60 30 60C13.4315 60 0 46.5685 0 30Z" fill="#E8EAEE"/>
<path d="M28.125 41.25C28.125 41.25 26.25 41.25 26.25 39.375C26.25 37.5 28.125 31.875 35.625 31.875C43.125 31.875 45 37.5 45 39.375C45 41.25 43.125 41.25 43.125 41.25H28.125ZM35.625 30C37.1168 30 38.5476 29.4074 39.6025 28.3525C40.6574 27.2976 41.25 25.8668 41.25 24.375C41.25 22.8832 40.6574 21.4524 39.6025 20.3975C38.5476 19.3426 37.1168 18.75 35.625 18.75C34.1332 18.75 32.7024 19.3426 31.6475 20.3975C30.5926 21.4524 30 22.8832 30 24.375C30 25.8668 30.5926 27.2976 31.6475 28.3525C32.7024 29.4074 34.1332 30 35.625 30Z" fill="#424D5E"/>
<path fill-rule="evenodd" clip-rule="evenodd" d="M24.78 41.2498C24.502 40.6645 24.3634 40.0227 24.375 39.3748C24.375 36.8342 25.65 34.2186 28.005 32.3998C26.8295 32.0376 25.6049 31.8605 24.375 31.8748C16.875 31.8748 15 37.4998 15 39.3748C15 41.2498 16.875 41.2498 16.875 41.2498H24.78Z" fill="#424D5E"/>
<path d="M23.4375 30C24.6807 30 25.873 29.5061 26.7521 28.6271C27.6311 27.748 28.125 26.5557 28.125 25.3125C28.125 24.0693 27.6311 22.877 26.7521 21.9979C25.873 21.1189 24.6807 20.625 23.4375 20.625C22.1943 20.625 21.002 21.1189 20.1229 21.9979C19.2439 22.877 18.75 24.0693 18.75 25.3125C18.75 26.5557 19.2439 27.748 20.1229 28.6271C21.002 29.5061 22.1943 30 23.4375 30Z" fill="#424D5E"/>
</svg>
