<svg width="60" height="60" viewBox="0 0 60 60" fill="none" xmlns="http://www.w3.org/2000/svg">
<path d="M0 30C0 13.4315 13.4315 0 30 0C46.5685 0 60 13.4315 60 30C60 46.5685 46.5685 60 30 60C13.4315 60 0 46.5685 0 30Z" fill="#E8EAEE"/>
<g clip-path="url(#clip0_503_40502)">
<path d="M21.216 29.9979C21.216 30.3405 21.1486 30.6797 21.0175 30.9961C20.8864 31.3126 20.6942 31.6002 20.452 31.8424C20.2098 32.0846 19.9222 32.2768 19.6058 32.4078C19.2893 32.5389 18.9501 32.6064 18.6075 32.6064C18.265 32.6064 17.9258 32.5389 17.6093 32.4078C17.2928 32.2768 17.0053 32.0846 16.763 31.8424C16.5208 31.6002 16.3287 31.3126 16.1976 30.9961C16.0665 30.6797 15.999 30.3405 15.999 29.9979C15.999 29.3061 16.2738 28.6426 16.763 28.1534C17.2522 27.6642 17.9157 27.3894 18.6075 27.3894C19.2993 27.3894 19.9628 27.6642 20.452 28.1534C20.9412 28.6426 21.216 29.3061 21.216 29.9979Z" fill="#424D5E"/>
<path d="M21.216 20.608C21.216 20.9506 21.1486 21.2898 21.0175 21.6062C20.8864 21.9227 20.6942 22.2103 20.452 22.4525C20.2098 22.6947 19.9222 22.8869 19.6058 23.018C19.2893 23.149 18.9501 23.2165 18.6075 23.2165C18.265 23.2165 17.9258 23.149 17.6093 23.018C17.2928 22.8869 17.0053 22.6947 16.763 22.4525C16.5208 22.2103 16.3287 21.9227 16.1976 21.6062C16.0665 21.2898 15.999 20.9506 15.999 20.608C15.999 19.9162 16.2738 19.2527 16.763 18.7635C17.2522 18.2743 17.9157 17.9995 18.6075 17.9995C19.2993 17.9995 19.9628 18.2743 20.452 18.7635C20.9412 19.2527 21.216 19.9162 21.216 20.608Z" fill="#424D5E"/>
<path d="M21.216 39.389C21.216 39.7316 21.1486 40.0708 21.0175 40.3872C20.8864 40.7037 20.6942 40.9913 20.452 41.2335C20.2098 41.4757 19.9222 41.6679 19.6058 41.799C19.2893 41.93 18.9501 41.9975 18.6075 41.9975C18.265 41.9975 17.9258 41.93 17.6093 41.799C17.2928 41.6679 17.0053 41.4757 16.763 41.2335C16.5208 40.9913 16.3287 40.7037 16.1976 40.3872C16.0665 40.0708 15.999 39.7316 15.999 39.389C15.999 38.6972 16.2738 38.0337 16.763 37.5445C17.2522 37.0553 17.9157 36.7805 18.6075 36.7805C19.2993 36.7805 19.9628 37.0553 20.452 37.5445C20.9412 38.0337 21.216 38.6972 21.216 39.389Z" fill="#424D5E"/>
<path d="M25.7936 18H41.0406C41.7328 18 42.3967 18.275 42.8861 18.7645C43.3756 19.2539 43.6506 19.9178 43.6506 20.61C43.6506 21.3022 43.3756 21.9661 42.8861 22.4555C42.3967 22.945 41.7328 23.22 41.0406 23.22H25.7936C25.1014 23.22 24.4375 22.945 23.948 22.4555C23.4586 21.9661 23.1836 21.3022 23.1836 20.61C23.1836 19.9178 23.4586 19.2539 23.948 18.7645C24.4375 18.275 25.1014 18 25.7936 18V18Z" fill="#424D5E"/>
<path d="M25.7936 27.3899H41.0406C41.3833 27.3899 41.7227 27.4574 42.0394 27.5886C42.3561 27.7197 42.6438 27.912 42.8861 28.1543C43.1285 28.3967 43.3208 28.6844 43.4519 29.0011C43.5831 29.3177 43.6506 29.6571 43.6506 29.9999C43.6506 30.3426 43.5831 30.682 43.4519 30.9987C43.3208 31.3154 43.1285 31.6031 42.8861 31.8454C42.6438 32.0878 42.3561 32.2801 42.0394 32.4112C41.7227 32.5424 41.3833 32.6099 41.0406 32.6099H25.7936C25.4508 32.6099 25.1115 32.5424 24.7948 32.4112C24.4781 32.2801 24.1904 32.0878 23.948 31.8454C23.7057 31.6031 23.5134 31.3154 23.3823 30.9987C23.2511 30.682 23.1836 30.3426 23.1836 29.9999C23.1836 29.6571 23.2511 29.3177 23.3823 29.0011C23.5134 28.6844 23.7057 28.3967 23.948 28.1543C24.1904 27.912 24.4781 27.7197 24.7948 27.5886C25.1115 27.4574 25.4508 27.3899 25.7936 27.3899Z" fill="#424D5E"/>
<path d="M25.7936 36.781H41.0406C41.3833 36.781 41.7227 36.8485 42.0394 36.9797C42.3561 37.1108 42.6438 37.3031 42.8861 37.5455C43.1285 37.7878 43.3208 38.0755 43.4519 38.3922C43.5831 38.7089 43.6506 39.0483 43.6506 39.391C43.6506 39.7338 43.5831 40.0731 43.4519 40.3898C43.3208 40.7065 43.1285 40.9942 42.8861 41.2366C42.6438 41.4789 42.3561 41.6712 42.0394 41.8023C41.7227 41.9335 41.3833 42.001 41.0406 42.001H25.7936C25.4508 42.001 25.1115 41.9335 24.7948 41.8023C24.4781 41.6712 24.1904 41.4789 23.948 41.2366C23.7057 40.9942 23.5134 40.7065 23.3823 40.3898C23.2511 40.0731 23.1836 39.7338 23.1836 39.391C23.1836 39.0483 23.2511 38.7089 23.3823 38.3922C23.5134 38.0755 23.7057 37.7878 23.948 37.5455C24.1904 37.3031 24.4781 37.1108 24.7948 36.9797C25.1115 36.8485 25.4508 36.781 25.7936 36.781Z" fill="#424D5E"/>
</g>
<defs>
<clipPath id="clip0_503_40502">
<rect width="28" height="24" fill="white" transform="translate(16 18)"/>
</clipPath>
</defs>
</svg>
