<svg width="191" height="56" viewBox="0 0 191 56" fill="none" xmlns="http://www.w3.org/2000/svg">
<path fill-rule="evenodd" clip-rule="evenodd" d="M131.83 41.2076C128.98 44.2648 125.32 45.8176 120.953 45.8176C116.585 45.8176 112.925 44.2648 110.076 41.2076C107.356 38.2954 105.793 33.6386 105.793 28.4361C105.793 23.3579 107.373 18.7651 110.123 15.8322C113.001 12.7749 116.644 11.2152 120.95 11.2031C125.263 11.2152 128.905 12.7749 131.781 15.8322C134.535 18.7651 136.112 23.3579 136.112 28.4361C136.112 33.6386 134.55 38.2954 131.83 41.2076ZM93.5879 28.4361C93.5879 28.671 93.5983 28.9025 93.6052 29.1339C89.2352 25.156 82.9168 23.6757 79.0564 22.9036C71.9141 21.3975 66.4576 20.0191 66.4576 14.934C66.4576 11.3465 69.6704 8.73656 75.8419 9.18392C81.4815 9.59328 83.8565 13.0409 84.5076 16.3676C84.6009 16.9135 84.8531 17.3107 85.4749 17.3159L95.6175 17.4023C95.6658 17.4023 95.7073 17.3971 95.7505 17.3936C94.3203 20.729 93.5879 24.4426 93.5879 28.4361ZM76.3376 47.0941C71.4322 47.0941 66.0275 45.3513 64.7822 38.608C64.6768 37.9637 64.3728 37.6977 63.8788 37.6839L54.0731 37.5526V20.2195C55.3616 25.2994 59.6297 28.8161 68.8603 30.894C75.0387 32.3726 85.7565 33.3122 85.7565 39.6547C85.7565 44.0766 82.5005 47.1977 76.3376 47.0941ZM27.4973 45.8246C19.5864 45.8246 12.3387 39.5977 12.3387 28.443C12.3387 19.6909 17.7727 11.21 27.5491 11.21C31.7844 11.21 42.5228 12.6609 42.5228 28.443C42.5228 44.2666 31.3111 45.8246 27.4955 45.8246H27.4973ZM148.025 24.1853C150.275 27.1873 154.338 29.4103 160.938 30.8957C167.114 32.3743 177.834 33.3139 177.834 39.6565C177.834 44.0783 174.576 47.1995 168.415 47.0958C163.511 47.0958 158.103 45.353 156.86 38.6097C156.756 37.9655 156.452 37.6995 155.956 37.6856L146.871 37.5647C147.829 34.7372 148.318 31.6747 148.318 28.4378C148.318 27.0153 148.22 25.5944 148.025 24.1853ZM167.745 55.9222C178.625 55.9222 191.448 51.8717 190.445 38.7341C189.336 27.0716 177.2 24.1179 171.134 22.9054C163.99 21.3992 158.533 20.0208 158.533 14.9357C158.533 11.3482 161.746 8.73828 167.919 9.18565C173.559 9.59501 175.934 13.0426 176.585 16.3694C176.678 16.9152 176.932 17.3125 177.552 17.3176L187.695 17.404C188.467 17.4092 188.707 17.0085 188.61 16.4592C186.624 4.30265 176.468 0.863647 167.121 0.863647C157.789 0.863647 146.544 3.48565 145.746 15.0946C145.719 15.5437 145.708 15.9859 145.708 16.4195C144.223 13.3311 142.081 10.4949 139.321 7.98347C134.225 3.38892 127.873 0.927557 120.944 0.867102H120.715C117.405 0.867102 114.167 1.47683 111.087 2.68592C107.956 3.92412 105.076 5.71892 102.585 7.98347C99.9719 10.3602 97.9078 13.0271 96.4327 15.9237C94.2356 4.20765 84.2485 0.863647 75.0422 0.863647C66.4749 0.863647 56.2944 3.07974 54.0731 12.4364V3.14883C54.0726 2.91092 53.9778 2.6829 53.8094 2.51484C53.641 2.34677 53.4128 2.25237 53.1749 2.25237H43.6231C43.3852 2.25283 43.1572 2.34766 42.9891 2.51606C42.821 2.68445 42.7266 2.91264 42.7266 3.15056V5.6551C42.7266 6.07656 42.4451 6.22337 42.1014 5.9781C38.7038 3.51328 33.6775 0.868829 27.6285 0.868829C24.2293 0.868829 20.9837 1.46647 17.98 2.64447C14.9745 3.82592 12.1176 5.62401 9.49564 7.99037C6.51091 10.7056 4.23782 13.8009 2.74718 17.1898C1.25655 20.5787 0.5 24.3649 0.5 28.4413C0.5 32.2465 1.17018 35.815 2.48982 39.0398C3.80945 42.2646 5.81827 45.2476 8.46273 47.9076C11.1055 50.5676 14.0625 52.5886 17.2459 53.9186C20.4293 55.2434 23.9374 55.9153 27.6786 55.9153C34.1075 55.9153 38.9318 53.1776 42.0927 50.6886C42.4416 50.4226 42.7266 50.5659 42.7266 51.0012V53.6318C42.7266 54.1258 43.1308 54.53 43.6248 54.53H53.1766C53.4144 54.5291 53.6422 54.4341 53.8101 54.2658C53.9781 54.0975 54.0726 53.8696 54.0731 53.6318V44.7709C58.5761 55.3591 70.0504 55.9205 75.6675 55.9205C85.0569 55.9205 95.8852 52.8977 98.0339 43.6257C99.0669 45.1603 100.245 46.5919 101.552 47.9007C106.672 53.0532 113.381 55.8237 120.962 55.9067H121.273C124.872 55.9067 128.346 55.2157 131.597 53.8495C134.878 52.4618 137.854 50.4403 140.354 47.9007C142.224 46.0367 143.82 43.9177 145.097 41.6066C148.501 55.2572 161.615 55.9205 167.745 55.9205V55.9222Z" fill="#0B0B0A"/>
</svg>
