<svg width="115" height="171" viewBox="0 0 115 171" fill="none" xmlns="http://www.w3.org/2000/svg">
<path fill-rule="evenodd" clip-rule="evenodd" d="M54.1299 0.5C49.4264 1.11723 44.8297 2.37607 40.4681 4.2414C38.0872 5.26178 37.577 5.65859 37.577 6.45222C36.9862 8.20348 35.7495 9.66329 34.1191 10.5337C32.5418 11.2944 30.8238 11.7191 29.0738 11.7809C28.7904 11.7809 28.507 11.7809 28.507 11.7809C28.507 11.7809 30.491 14.9554 31.6248 15.4656C32.7586 15.9758 32.0216 16.2025 29.2439 16.2592C26.4662 16.3159 25.6726 16.7694 24.9356 18.3567C24.5955 19.0936 24.9356 19.2637 25.4458 20.5108C27.2598 23.2885 27.2598 24.8758 25.4458 26.1796C23.6318 27.4834 22.9516 28.4471 24.8223 35.9299C25.5592 38.821 26.1828 41.5987 26.2961 41.5987C26.4095 41.5987 26.2961 42.3923 26.0127 42.3923C25.4678 42.5597 24.9909 42.8975 24.6522 43.356C23.6318 45.2267 23.9153 48.0611 25.786 54.2401C26.569 56.4992 27.1941 58.8101 27.6567 61.156C28.677 66.0878 29.8675 67.8451 32.3051 67.7885C33.2121 67.7885 33.2687 67.7885 33.3821 69.2057C33.4354 71.8143 33.9737 74.3902 34.9694 76.8018C35.295 77.4604 35.5058 78.1698 35.5929 78.8993C36.415 82.9863 38.4965 86.7132 41.5452 89.5566C43.4152 91.339 45.4245 92.9692 47.5541 94.4317C48.4435 95.0412 49.2954 95.7038 50.105 96.4158H47.2706C44.5496 96.4158 43.3592 96.4158 43.0191 96.9827C42.6461 99.368 42.6461 101.797 43.0191 104.182C43.4726 104.976 44.7764 105.032 53.1662 104.692C55.3203 104.692 55.2069 104.692 54.3566 106.45L52.4859 111.211C50.842 115.35 49.3681 118.751 47.7808 121.869C46.1936 124.986 46.1936 124.533 48.1777 124.986C48.8661 125.152 49.5322 125.399 50.1617 125.723C51.919 126.63 51.8624 126.63 52.7127 124.93C54.4704 121.13 56.0036 117.231 57.3044 113.252C57.3859 112.85 57.5396 112.466 57.7579 112.118C57.7579 112.118 57.7579 123.456 57.7579 125.893C57.7579 128.331 57.7579 128.558 59.6286 128.048C60.396 127.901 61.1726 127.806 61.9528 127.764C63.37 127.764 63.37 127.764 63.5967 126.12C63.9582 119.335 63.3087 112.534 61.6694 105.939C61.2725 104.636 61.2725 104.579 61.6694 104.522C64.0085 104.331 66.3594 104.331 68.6986 104.522C71.3063 104.522 71.6464 104.522 71.8732 104.239C72.1561 101.866 72.1561 99.4686 71.8732 97.0961C71.4764 96.3025 69.6057 95.9056 66.6579 96.0757C64.9006 96.0757 64.9006 96.0757 66.091 95.3954C70.3668 92.6127 74.1905 89.1905 77.4286 85.2483C80.1543 80.601 81.7468 75.3769 82.077 69.9993C82.077 68.1286 82.077 68.0719 83.3808 68.0152C85.8751 68.0152 86.6687 66.598 88.7095 59.1719C90.1339 55.1058 91.0479 50.8786 91.4305 46.5872C91.4305 44.3197 91.4305 43.8662 89.5031 42.8458C89.0496 42.5624 89.0496 42.8458 90.07 39.4445C90.775 37.613 91.288 35.7132 91.6005 33.7758V32.9821L90.977 32.4153C90.5049 32.034 90.1266 31.5496 89.8711 30.9993C89.6156 30.4489 89.4897 29.8473 89.5031 29.2407C88.8788 22.2331 85.9278 15.6357 81.1201 10.4993C76.3124 5.36282 69.9243 1.98258 62.9732 0.896814C59.973 0.670305 56.96 0.670305 53.9598 0.896814L54.1299 0.5ZM59.7987 3.39108C65.9965 4.04551 71.8875 6.42154 76.805 10.2503C79.4841 12.2565 81.7043 14.8112 83.3173 17.7439C84.9303 20.6766 85.8989 23.9197 86.1585 27.2567C86.5855 30.9047 86.4325 34.5973 85.705 38.1974C85.2515 38.7076 85.1381 38.4809 84.4012 35.9866C83.4546 32.4078 82.0242 28.9749 80.1496 25.7828C79.1859 24.2522 79.0725 24.5923 79.0725 28.1637V31.4516L79.4693 31.9618C80.7945 33.6063 81.6905 35.5542 82.077 37.6305C82.5872 39.728 82.7572 41.4286 82.4171 41.542C81.7568 41.5957 81.0933 41.5957 80.433 41.542C76.8867 41.2483 73.3221 41.2483 69.7757 41.542C64.4471 41.542 63.4834 41.9388 60.9324 43.8095C59.5152 44.8866 59.4018 44.9433 58.6082 44.7732C57.6929 44.5754 56.7458 44.5754 55.8305 44.7732C54.9235 44.7732 54.6968 44.7732 53.4496 43.9229C50.7286 41.7121 49.935 41.542 41.3184 41.542H34.2324V40.5216C34.1928 39.8223 34.3814 39.1291 34.7699 38.5463C35.1585 37.9635 35.7258 37.5228 36.3866 37.2904C37.5203 36.7802 37.407 37.007 38.0872 33.6624C38.1888 31.0258 38.8715 28.4442 40.0867 26.1021C41.3018 23.76 43.0193 21.7152 45.1165 20.114C46.9538 19.2449 48.9722 18.8275 51.0035 18.8966C53.0347 18.9656 55.0201 19.519 56.7942 20.5108C57.6445 20.9643 57.7012 20.9076 58.9483 19.8872C60.1955 18.8669 60.3655 18.6401 58.9483 17.0528C56.4628 14.3541 53.1711 12.5315 49.5646 11.8572C45.9581 11.1829 42.2303 11.6931 38.9375 13.3115C38.3681 13.5479 37.7804 13.7375 37.1802 13.8783C36.8401 12.9146 41.7719 9.51337 45.1165 8.20955C47.3273 7.41592 47.1573 6.62229 44.7197 6.62229C43.8127 6.62229 43.6426 6.62229 44.1528 5.88534C49.0402 3.55589 54.462 2.57722 59.8553 3.05095L59.7987 3.39108ZM45.1165 16.486C45.6834 16.486 45.6267 16.8261 44.4929 17.3363C41.2291 18.6736 38.5812 21.18 37.0668 24.3656C36.7316 25.1451 36.2052 25.8275 35.5363 26.3497C34.2068 27.2799 33.276 28.6762 32.9286 30.2611C31.9707 33.1567 31.4175 36.1708 31.2847 39.2178C31.2847 41.2019 31.2847 41.4853 30.1509 41.9388C29.0172 42.3923 29.414 42.5057 28.6203 39.5012C26.4095 30.9981 26.4095 30.9981 29.5273 26.5197C30.321 25.386 30.1509 23.9121 29.0738 21.6446C28.4503 20.114 28.3936 20.114 30.8879 20.114C33.5399 19.7229 36.1191 18.9396 38.5407 17.7898C40.5205 16.6214 42.8527 16.1991 45.1165 16.5993V16.486ZM35.1394 42.7891C35.8197 43.4127 35.1394 44.2063 34.1191 43.8662C33.8373 43.8226 33.5505 43.8226 33.2687 43.8662C32.7586 43.8662 32.5318 43.4127 32.9286 43.1859C33.1339 43.1396 33.3469 43.1396 33.5522 43.1859H34.1191C34.2721 43.0904 34.4489 43.0398 34.6293 43.0398C34.8096 43.0398 34.9864 43.0904 35.1394 43.1859V42.7891ZM81.2834 42.7891C82.1904 42.7891 82.4738 43.6961 81.6235 43.6961H80.8298C80.1496 43.6961 80.0362 43.6961 79.6961 43.6961C79.566 43.5995 79.4747 43.4596 79.4386 43.3016C79.4026 43.1437 79.424 42.978 79.4992 42.8345C79.5744 42.6909 79.6984 42.579 79.8488 42.5187C79.9992 42.4584 80.1662 42.4538 80.3197 42.5057H81.2834V42.7891ZM40.6949 44.3764C40.6949 44.3764 40.6949 44.7165 40.128 45L38.2006 46.2471C36.7267 47.2108 36.3866 47.3242 35.9898 46.8707C35.5929 46.4171 35.9898 45.2834 36.8968 44.6031C37.8038 43.9229 40.5815 43.8662 40.6949 44.6031V44.3764ZM76.0681 44.3764C77.542 44.7165 77.8254 47.0974 76.4082 47.0974C74.991 47.0974 72.6101 44.9433 72.8369 44.4331C73.0636 43.9229 75.1611 44.1496 76.0681 44.4331V44.3764ZM47.3273 44.8299C47.9509 45.1133 48.5745 45.907 48.4611 46.2471C48.3477 46.5872 48.1777 46.2471 47.1006 46.2471C45.5873 46.1917 44.0849 46.5234 42.7356 47.2108C41.2617 47.891 40.4681 48.1178 40.0713 47.891C39.6745 47.6643 39.6745 47.2108 41.3751 46.2471L42.9057 45.3968C43.5283 44.9253 44.2586 44.6163 45.0305 44.4975C45.8024 44.3787 46.5918 44.454 47.3273 44.7165V44.8299ZM71.0228 45.2267C71.5667 45.5309 72.0632 45.9129 72.4967 46.3605L74.3107 47.7777C75.2744 48.4012 75.3311 48.4579 75.0477 48.6847C74.7642 48.9114 73.2337 48.6847 71.8732 47.4942C71.3347 47.0139 70.6799 46.6827 69.9739 46.5335C69.2679 46.3844 68.5351 46.4224 67.8483 46.6439C65.9776 46.9273 65.8076 46.6439 67.5082 45.5101C68.0147 45.152 68.6083 44.9367 69.2267 44.8868C69.8451 44.8369 70.4655 44.9543 71.0228 45.2267ZM82.984 45.0566C83.2674 45.5668 83.3241 46.3605 82.984 48.9681C82.6439 51.5757 82.984 52.5961 84.5146 51.0089C85.1948 50.3286 85.2515 50.0452 85.1381 48.9114C85.0247 47.7777 85.705 45.5668 86.7821 45.8503C87.8591 46.1337 88.5961 47.7777 86.7821 53.8999C86.4419 55.2605 85.9317 57.1311 85.705 58.0948C84.3445 63.7636 83.4375 65.0675 81.7369 64.3872C80.9999 64.0471 80.7732 64.3872 79.9795 65.521C79.2029 66.5865 78.822 67.8895 78.9025 69.2057C79.0451 73.3463 78 77.4412 75.8906 81.0071C73.7812 84.573 70.6956 87.4609 66.998 89.3298C65.2407 90.0101 64.7872 90.0101 63.9936 89.3298C63.1999 88.6496 62.9732 88.6496 62.9732 88.8763C62.9732 89.1031 62.9732 89.6133 62.9732 90.3502C62.9732 91.9375 62.9732 92.2209 61.556 93.8649C60.539 94.9572 59.9026 96.3492 59.742 97.833C59.4018 100.101 54.0732 94.8286 52.5993 90.747C52.1476 89.3271 52.1476 87.802 52.5993 86.3821C53.3489 84.434 53.6021 82.3301 53.3362 80.2598C53.3362 79.7496 53.3362 79.5795 53.3362 79.4662C53.3362 79.3528 53.9598 79.4662 54.9235 80.94C55.8872 82.4139 55.8872 80.94 55.6604 79.0126C55.677 78.5649 55.5219 78.1278 55.2268 77.7906C54.9318 77.4535 54.5191 77.2417 54.0732 77.1986C51.919 76.5751 53.3929 75.2713 56.2273 75.3846C59.044 75.7624 61.9094 75.5107 64.6171 74.6477C66.5445 74.0808 66.6579 74.0808 67.6216 74.6477C68.5853 75.2146 68.5853 75.4413 68.6986 77.5388C68.6986 81.1101 70.1158 80.8834 70.8528 77.1986C70.9497 76.1029 71.3633 75.059 72.0432 74.1942C72.8036 73.2597 73.3624 72.1779 73.6844 71.017C74.0063 69.856 74.0845 68.641 73.9139 67.4483C73.9139 65.6343 73.4604 65.1808 72.0432 64.5006C70.7589 63.7393 69.6867 62.6671 68.9254 61.3827C67.2248 58.8885 66.4311 58.1515 64.7872 57.4713C63.1432 56.791 62.9165 57.1878 63.2566 58.4917C63.5967 59.7955 63.2566 60.6458 61.6694 61.5528C60.5673 62.2794 59.2763 62.6666 57.9563 62.6666C56.6363 62.6666 55.3453 62.2794 54.2432 61.5528C52.0324 60.0222 51.749 58.0948 53.2796 54.8636C53.9005 53.6902 54.2492 52.3921 54.2999 51.0656C54.8101 47.4375 55.1503 46.6439 56.4541 46.6439C57.7579 46.6439 57.9846 47.0974 58.2681 48.4012C58.9483 50.8955 59.9687 51.9159 61.0458 51.1222C62.1229 50.3286 61.8961 50.3286 61.4993 49.535C61.1025 48.7413 61.4993 48.2312 62.5197 48.8547C64.5499 49.7454 66.7967 50.0213 68.9821 49.6484C71.1929 49.1949 72.0999 49.3649 72.5534 50.3286C73.0069 51.2923 73.0636 51.0655 74.0273 51.2356C74.991 51.4057 75.7279 51.6324 75.3878 52.5961C75.0408 53.3156 74.5142 53.9335 73.8589 54.3903C73.2035 54.847 72.4415 55.1272 71.6464 55.2038C70.3993 55.2038 70.3426 55.2038 70.3426 56.0541C70.3426 56.9044 71.3063 57.3579 73.4037 56.791C75.5012 56.2241 77.5419 54.2401 78.5056 49.1382C79.1859 45.907 79.1859 45.8503 80.6598 45.3401C82.1337 44.8299 82.3037 44.9433 82.5305 45.3401L82.984 45.0566ZM29.414 46.2471C29.8077 46.5122 30.0968 46.9064 30.2313 47.3616C30.3658 47.8169 30.3374 48.3048 30.1509 48.7414C29.7541 49.8751 29.7541 50.2152 30.6611 55.2038C31.4547 59.2853 31.228 60.3057 30.0375 59.2286C29.4705 58.783 29.1035 58.1306 29.0172 57.4146C29.0172 57.0178 28.4503 55.2038 27.8834 53.2764C26.863 49.4783 26.693 48.4579 27.0331 47.6076C27.0653 47.3472 27.1639 47.0994 27.3194 46.8881C27.4749 46.6768 27.6822 46.509 27.9212 46.4008C28.1603 46.2927 28.4232 46.2478 28.6846 46.2705C28.946 46.2932 29.1971 46.3828 29.414 46.5305V46.2471ZM45.7968 49.0815C47.0121 49.3336 48.2662 49.3336 49.4815 49.0815C50.7853 49.0815 50.9554 49.0815 50.3318 49.705C49.7082 50.3286 49.8216 50.3286 50.3318 51.0656C51.2388 52.8796 49.1413 54.5802 45.57 54.8636C44.4363 54.8636 44.3229 54.8636 44.3229 55.7706C44.3229 56.6776 44.663 56.6776 46.0802 56.6776C47.4974 56.6776 47.6675 56.6776 47.6675 56.6776C47.5797 56.9448 47.4454 57.1943 47.2706 57.4146C47.0374 57.8286 46.8474 58.2655 46.7038 58.7184C46.7038 59.6254 46.4203 59.6821 45.0031 60.249C44.3187 60.5423 43.6558 60.8833 43.0191 61.2694C39.4477 63.877 37.6904 63.0834 36.0464 58.2082C34.9127 54.8069 35.1961 54.2401 37.407 55.3171C39.6178 56.3942 39.5044 56.1108 39.8445 55.3171C40.1847 54.5235 40.2414 54.1267 39.0509 53.6165C37.8605 53.1063 35.6496 50.4987 36.67 49.8184C37.6904 49.1382 37.2936 49.8184 37.9171 50.2152C38.5407 50.612 39.5611 51.2356 40.3547 50.2152C41.0074 49.3807 41.9062 48.7729 42.9236 48.4778C43.9411 48.1827 45.0257 48.2154 46.0235 48.5713L45.7968 49.0815ZM50.7853 57.0178C50.7853 57.0178 50.7853 57.3012 50.7853 57.5846C50.5598 58.285 50.5598 59.0384 50.7853 59.7388C51.2955 61.2127 50.7853 61.8362 49.5948 60.8725C48.4044 59.9089 49.0847 55.6573 50.7853 57.0178ZM64.9006 63.2534C65.4098 63.7283 65.8834 64.2398 66.3178 64.784C67.1471 65.8918 68.212 66.8018 69.4356 67.4483C72.9502 68.5254 66.6579 70.1127 61.9528 69.319C61.013 69.1533 60.0851 68.926 59.1751 68.6388C58.5777 68.3714 57.9306 68.2332 57.276 68.2332C56.6215 68.2332 55.9744 68.3714 55.377 68.6388C51.957 69.7923 48.2531 69.7923 44.8331 68.6388C43.5293 67.9585 43.5293 67.6184 44.8331 66.9948C45.7308 66.5907 46.5855 66.0969 47.384 65.521C50.105 63.7636 51.3522 63.4235 52.5993 64.2738C53.6458 65.2279 54.9883 65.7936 56.4021 65.8762C57.8159 65.9587 59.2151 65.5532 60.3655 64.7273C60.7179 64.3212 61.1661 64.0095 61.6694 63.8203L62.9165 63.2534C63.8802 62.6866 64.1636 62.6299 64.7872 63.2534H64.9006ZM40.3547 67.335C40.3547 67.6184 40.6382 67.8452 40.7515 69.0923C41.0917 74.3643 42.849 79.9763 44.0394 79.9763C44.0394 79.9763 44.4363 79.9763 44.8331 78.956C45.6834 76.9719 46.0802 76.8585 46.477 78.3324C46.941 80.2514 47.5087 82.1437 48.1777 84.0012C48.6878 85.4751 48.5178 85.8152 47.0439 85.8152C41.8853 85.8152 34.4592 73.9108 36.7267 69.2623C37.577 67.5617 39.5044 66.6547 40.3547 67.505V67.335ZM61.8961 71.3598C63.7101 71.3598 63.6534 71.87 61.8961 72.3802C59.5087 72.8562 57.0706 73.0277 54.6401 72.8904C53.6764 72.8904 52.5426 71.6999 52.9961 71.4732C56.0321 71.1971 59.0869 71.1971 62.1229 71.4732L61.8961 71.3598Z" fill="black"/>
<path fill-rule="evenodd" clip-rule="evenodd" d="M100.897 135.078C87.0651 136.042 78.6753 143.695 78.6753 155.316C78.6753 166.937 90.4097 172.889 107.019 169.601C110.477 168.921 110.25 169.148 110.817 165.917C111.384 162.685 111.441 162.572 108.72 163.309C96.5887 166.37 88.7657 160.475 91.3167 150.214C91.786 147.772 93.0045 145.538 94.8028 143.821C96.6011 142.104 98.8897 140.99 101.35 140.634C105.319 140.124 107.87 141.768 108.096 144.942C108.096 146.303 108.096 146.303 110.307 146.303C112.518 146.303 112.121 146.699 113.255 141.711C114.389 136.722 114.559 136.439 112.178 136.042C108.465 135.177 104.638 134.909 100.84 135.248" fill="black"/>
<path fill-rule="evenodd" clip-rule="evenodd" d="M8.43918 135.814C8.11344 136.771 7.88552 137.759 7.75892 138.762C7.75892 139.159 7.75892 139.329 8.7793 139.782C9.1973 139.951 9.55539 140.241 9.80783 140.615C10.0603 140.989 10.1956 141.429 10.1965 141.88C10.1965 142.617 6.73854 159.34 6.0016 161.834C5.86952 162.708 5.51997 163.534 4.98507 164.237C4.45018 164.941 3.74711 165.498 2.94046 165.859C1.63664 166.199 1.63664 166.199 1.3532 167.446C0.616262 170.224 -0.290745 169.997 10.0264 169.997C20.3436 169.997 18.9264 169.997 19.3232 168.353C19.7201 166.709 19.7767 166.029 18.813 165.632C18.1868 165.344 17.6842 164.841 17.3959 164.215C17.8313 161.104 18.4369 158.019 19.2099 154.975C19.2099 154.635 19.2099 154.635 21.0239 157.639C25.8423 166.256 28.1098 168.693 32.3614 169.657C36.134 169.972 39.9264 169.972 43.699 169.657C44.1335 168.728 44.4021 167.73 44.4926 166.709C44.4926 166.199 44.0958 165.915 43.1321 165.802C41.148 165.802 40.8646 165.349 34.8557 157.242C30.3207 151.063 30.1506 150.837 30.3774 150.61C31.6245 149.419 42.5652 140.519 43.1321 140.236C44.0946 139.753 45.128 139.428 46.1933 139.272C47.157 139.272 47.327 138.989 47.6105 137.685C48.1773 135.134 48.971 135.361 39.9576 135.361C30.9442 135.361 32.1347 135.361 31.9646 136.041C31.3411 138.592 31.3411 138.932 31.9646 139.386C32.5882 139.839 33.2684 140.123 27.1462 145.054C21.0239 149.986 20.1169 150.723 20.1169 150.723C20.1169 150.723 22.1009 141.256 22.3277 140.803C22.7084 140.083 23.3307 139.521 24.085 139.216C24.992 138.819 24.992 138.762 25.3321 137.345C25.8423 134.907 26.806 135.134 16.8857 135.134H8.60924L8.43918 135.814Z" fill="black"/>
<path fill-rule="evenodd" clip-rule="evenodd" d="M50.3315 135.815C49.9604 136.761 49.7127 137.752 49.5946 138.762C49.5946 139.159 49.5946 139.273 50.615 139.726C51.0017 139.948 51.347 140.236 51.6353 140.576C52.3723 141.597 52.429 141.143 49.1978 155.825C45.9666 170.508 46.1933 169.374 46.5334 169.714C51.2691 170.083 56.0264 170.083 60.7621 169.714C61.2519 168.605 61.5214 167.411 61.5557 166.199C61.4164 166.001 61.2438 165.828 61.0455 165.689C58.9481 164.669 58.8914 164.045 60.592 156.959H66.2608C68.2415 157.123 70.2323 157.123 72.213 156.959C72.7972 155.107 73.2332 153.212 73.5168 151.29C73.5168 150.553 73.5168 150.553 67.5646 150.553C61.6124 150.553 61.8958 150.553 61.8958 150.553C61.8958 150.553 62.3493 148.343 62.8595 145.905L63.8232 141.54H67.7914C73.7436 141.54 74.4238 141.54 74.4238 144.715C74.4238 146.018 74.4238 146.132 76.748 146.075C78.0519 146.075 78.392 146.075 78.562 146.075C79.4375 143.034 80.1565 139.95 80.7162 136.835C80.7162 136.155 81.6799 136.155 65.2404 136.155H50.5016L50.3315 135.815Z" fill="black"/>
</svg>
