<svg width="191" height="83" viewBox="0 0 191 83" fill="none" xmlns="http://www.w3.org/2000/svg">
<path d="M79.0058 70.6459V77.3272C79.0058 77.5753 78.8029 77.7899 78.5412 77.7899H73.2642C69.0019 77.7213 67.291 75.7562 67.2256 71.4842C67.2909 67.3447 68.8174 65.2791 73.2893 65.2171V65.2265H84.412V60.6527H73.2893C65.3654 60.6929 62.1012 64.0612 61.9435 71.2203L61.9368 71.782L61.9435 71.7914C62.113 78.7392 65.3704 82.1511 73.0662 82.2651V82.2705H81.2099C83.0902 82.2705 84.4389 80.7012 84.4389 79.0464V70.6449H79.0058V70.6459ZM122.609 82.2594V73.3583H136.144V68.9422H122.609V62.2726C122.609 62.0178 122.816 61.8065 123.076 61.8065H136.458V57.2344H120.407C118.528 57.2344 117.176 58.8004 117.176 60.4585V82.2594H122.609ZM44.9884 77.7108C44.7234 77.7108 44.5221 77.4979 44.5221 77.2464V73.3835H58.0518V68.9707H44.5221V65.6795C44.5221 65.428 44.7234 65.2134 44.9884 65.2134H58.3722V60.6396H42.3197C40.4377 60.6396 39.0857 62.2123 39.0857 63.8671V79.0571C39.0857 80.717 40.4377 82.2863 42.3197 82.2863H58.3722V77.7108H44.9884ZM30.2265 56.7207C27.6853 56.7207 26.0632 58.0754 24.8606 60.7999L17.7854 77.0898L10.7052 60.7999C9.5008 58.0754 7.87878 56.7207 5.33587 56.7207C2.95735 56.7207 0.5 58.4225 0.5 62.1194V82.2873H5.92295V62.671L13.0451 78.8234C14.0029 81.0801 15.541 82.4969 17.7803 82.5002H17.7857C20.0234 82.4962 21.5649 81.0801 22.521 78.8234L29.6414 62.671V82.2873H35.0644V62.1194C35.0644 58.4225 32.6037 56.7207 30.2268 56.7207H30.2265ZM96.7959 73.3838L100.136 65.5256C100.241 65.2791 100.433 65.2137 100.577 65.2137H100.579C100.724 65.2137 100.918 65.2792 101.021 65.5256L104.365 73.3838H96.7953H96.7959ZM105.04 63.0559C104.129 61.0842 102.32 60.1235 100.58 60.1235H100.577C98.8363 60.1235 97.0264 61.0842 96.1223 63.0559L87.2473 82.2866H93.0208L94.9549 77.7162H106.205L108.141 82.2866H113.914L105.041 63.0559H105.04ZM185.07 60.6401V75.1075L175.746 62.3905C174.959 61.4013 174.084 60.6401 172.284 60.6401C170.631 60.6401 168.59 61.9462 168.59 64.4259V82.3002H174.021V67.8361L183.304 80.5951C184.113 81.6949 184.948 82.3002 186.806 82.3002C188.46 82.3002 190.5 81.1148 190.5 78.5127V60.6401H185.07ZM152.527 78.0161C146.981 78.0161 145.386 75.9807 145.386 71.4488V71.4254C145.386 67.0276 146.908 64.8665 152.527 64.8665C158.153 64.8665 159.671 67.0276 159.671 71.4254V71.4488C159.671 75.9807 158.072 78.0161 152.527 78.0161ZM164.958 71.4254C164.957 63.8471 161.93 60.3128 152.527 60.3128C143.13 60.3128 140.103 63.8471 140.097 71.4254V71.4405C140.097 78.9014 143.209 82.4994 152.527 82.4994C161.848 82.4994 164.958 78.9014 164.958 71.4405V71.4254Z" fill="#00985F"/>
<path d="M91.3725 18.4061C89.8729 18.4061 88.6551 17.1906 88.6551 15.6934C88.6551 14.1928 89.8729 12.9773 91.3725 12.9773C92.8721 12.9773 94.0865 14.1928 94.0865 15.6934C94.0865 17.1906 92.8721 18.4061 91.3725 18.4061ZM95.5374 0.5C83.5358 0.5 73.812 10.221 73.812 22.2154C73.812 32.6238 81.1405 41.322 90.9179 43.4395V23.9524L90.9193 23.951C90.9411 23.0104 91.6908 22.2526 92.6235 22.2174V22.2161H93.5276H95.3677C95.4951 22.2161 95.5991 22.1155 95.6058 21.9897L95.6072 0.50389L95.5374 0.5ZM110.509 34.0616C109.011 34.0616 107.793 32.8461 107.793 31.3455C107.793 29.85 109.011 28.6345 110.509 28.6345C112.007 28.6345 113.224 29.85 113.224 31.3455C113.224 32.8461 112.007 34.0616 110.509 34.0616ZM104.143 34.0616C102.645 34.0616 101.429 32.8461 101.429 31.3455C101.429 29.85 102.645 28.6345 104.143 28.6345C105.643 28.6345 106.859 29.85 106.859 31.3455C106.859 32.8461 105.643 34.0616 104.143 34.0616ZM97.774 34.0616C96.2761 34.0616 95.0567 32.8461 95.0567 31.3455C95.0567 29.85 96.2761 28.6345 97.774 28.6345C99.2753 28.6345 100.491 29.85 100.491 31.3455C100.491 32.8461 99.2753 34.0616 97.774 34.0616ZM98.2185 0.663664V22.2148V23.0531V23.0682L98.2132 23.0736C98.2051 24.0427 97.4147 24.8256 96.4418 24.8256H95.6065H93.7681C93.6339 24.8256 93.5266 24.9329 93.5266 25.0654V43.84C94.1891 43.9004 94.8567 43.9339 95.5361 43.9339C107.536 43.9339 117.261 34.2096 117.261 22.2152C117.261 11.1311 108.952 1.98523 98.2182 0.664066" fill="#00985F"/>
</svg>
