<svg width="191" height="51" viewBox="0 0 191 51" fill="none" xmlns="http://www.w3.org/2000/svg">
<path d="M50.4975 50.1145H47.6064V41.5973H52.6232V42.449H48.6268V45.1745H50.4975C52.1981 45.1745 53.3034 45.8559 53.3034 47.5593V47.6445C53.3034 49.2628 52.1981 50.1145 50.4975 50.1145ZM50.4975 49.3479C51.7729 49.3479 52.2831 48.7517 52.2831 47.7297V47.6445C52.2831 46.6224 51.6879 46.0262 50.4124 46.0262H48.6268V49.3479H50.4975Z" fill="black"/>
<path d="M54.2388 48.4109C54.2388 46.963 55.7693 46.4519 57.3849 46.4519H58.3202V46.0261C58.3202 45.004 57.9801 44.5782 56.9597 44.5782C56.1094 44.5782 55.5992 44.9188 55.5142 45.6854H54.4939C54.6639 44.2375 55.7693 43.7264 56.9597 43.7264C58.1501 43.7264 59.2555 44.2375 59.2555 45.9409V50.0292H58.2352V49.2626C57.81 49.8588 57.2148 50.1995 56.2795 50.1995C55.1741 50.1995 54.2388 49.6885 54.2388 48.4109ZM58.3202 47.985V47.2185H57.4699C56.1944 47.2185 55.3442 47.5592 55.3442 48.4109C55.3442 49.0923 55.6843 49.433 56.5346 49.433C57.4699 49.433 58.3202 48.9219 58.3202 47.985Z" fill="black"/>
<path d="M64.9525 47.3893H61.8915V50.2H60.8711V43.9824H61.8915V46.6228H64.9525V43.9824H65.9729V50.2H64.9525V47.3893Z" fill="black"/>
<path d="M68.6942 46.9633V50.1146H67.6738V43.8971H68.6942V46.7929L71.2451 43.8971H72.4355L69.7996 46.7929L72.6906 50.1146H71.5002L68.6942 46.9633Z" fill="black"/>
<path d="M18.9515 0.800171C8.74789 0.800171 0.5 9.06184 0.5 19.2825C0.5 29.5031 8.74789 37.7648 18.9515 37.7648C29.1551 37.7648 37.403 29.5031 37.403 19.2825C37.3179 9.06184 29.07 0.800171 18.9515 0.800171ZM16.3156 27.1183L14.9551 31.1214C9.85328 29.4179 6.45209 24.5631 6.45209 19.1121C6.45209 13.6611 9.85328 8.8915 15.0401 7.10289L16.4006 11.106C12.9994 12.2132 10.7886 15.4497 10.7886 19.027C10.7036 22.8597 12.9144 26.011 16.3156 27.1183ZM22.6078 31.2917L21.3323 27.2035C24.8185 26.0962 27.1143 22.8597 27.1143 19.1973C27.1143 15.5349 24.8185 12.3835 21.4173 11.2763L22.7778 7.18806C27.9646 8.8915 31.4509 13.7463 31.4509 19.1973C31.4509 24.7335 27.8796 29.5883 22.6078 31.2917Z" fill="#00BEF0"/>
<path d="M187.821 22.6048L189.861 25.0747C187.736 27.2892 185.1 27.8854 182.974 27.8854C180.933 27.8854 179.488 27.5447 178.212 26.9485C175.491 25.5858 174.131 22.8603 174.131 19.5386C174.131 14.5134 177.532 10.7659 182.549 10.7659C188.161 10.7659 190.882 14.9393 190.457 20.3903H177.702C177.787 21.753 178.552 23.0306 179.658 23.712C180.593 24.3082 181.698 24.5637 183.144 24.5637C184.76 24.5637 186.375 24.0527 187.821 22.6048ZM177.872 17.4093H186.885C186.63 15.4503 185.015 13.7469 182.464 13.7469C179.743 13.8321 178.127 15.6207 177.872 17.4093ZM92.162 27.4596H96.7536L89.5261 19.0275L96.6686 11.1066H92.162L86.7201 17.4093H85.1045V11.1066H81.6183V27.3744H85.1045V20.9013H86.7201L92.162 27.4596ZM107.212 14.0876C104.236 14.0876 102.281 16.3872 102.281 19.2831C102.281 22.1789 104.236 24.4785 107.212 24.4785C110.188 24.4785 112.059 22.2641 112.059 19.2831C112.059 16.3872 110.273 14.0876 107.212 14.0876ZM107.808 10.7659C112.399 10.7659 115.8 14.3431 115.8 19.2831C115.8 24.1379 112.484 27.8854 107.808 27.8854C105.597 27.8854 103.811 27.1189 102.536 25.7561V34.2733H98.9644V11.1066H102.451V13.0655C103.811 11.4472 105.512 10.7659 107.808 10.7659ZM154.064 11.1066H139.524V14.3431H145.051V27.3744H148.622V14.4283H154.149V11.1066H154.064ZM79.1524 11.1066H64.6123V14.3431H70.1393V27.3744H73.7105V14.4283H79.2375V11.1066H79.1524ZM60.2758 19.2831C60.2758 16.2169 58.1501 14.0024 55.174 14.0024C52.283 14.0024 50.0722 16.2169 50.0722 19.2831C50.0722 22.3492 52.198 24.5637 55.174 24.5637C58.065 24.5637 60.2758 22.3492 60.2758 19.2831ZM46.501 19.2831C46.501 14.4283 50.2423 10.7659 55.2591 10.7659C60.1908 10.7659 64.0171 14.4283 64.0171 19.2831C64.0171 24.1379 60.2758 27.8854 55.2591 27.8854C50.2423 27.8854 46.501 24.1379 46.501 19.2831ZM171.325 11.1066V27.3744H167.839V16.8982L159.336 27.3744H156.53V11.1066H160.016V21.6679L168.519 11.1917H171.325V11.1066ZM137.143 27.4596H133.657V11.1066H137.143V27.4596ZM128.045 21.8382C128.045 20.3903 127.024 19.3682 125.664 19.3682H122.093V24.3934H125.664C127.024 24.3934 128.045 23.3713 128.045 21.8382ZM131.616 21.8382C131.616 25.0747 129.235 27.3744 125.834 27.3744H118.606V11.1066H122.093V16.3872H126.089C129.49 16.3872 131.616 18.6017 131.616 21.8382Z" fill="black"/>
</svg>