<svg width="181" height="123" viewBox="0 0 181 123" fill="none" xmlns="http://www.w3.org/2000/svg">
<path d="M64.2832 6.65927C64.2832 10.0634 61.5593 12.7868 58.1545 12.7868C54.7497 12.7868 52.0259 10.0634 52.0259 6.65927C52.0259 3.25508 54.7497 0.531738 58.1545 0.531738C61.5593 0.531738 64.2832 3.25508 64.2832 6.65927Z" fill="#E8412C"/>
<path d="M80.3535 6.65927C80.3535 10.0634 77.6296 12.7868 74.2248 12.7868C70.82 12.7868 68.0962 10.0634 68.0962 6.65927C68.0962 3.25508 70.82 0.531738 74.2248 0.531738C77.6296 0.531738 80.3535 3.25508 80.3535 6.65927Z" fill="#E8412C"/>
<path d="M96.561 6.65927C96.561 10.0634 93.8372 12.7868 90.4324 12.7868C87.0276 12.7868 84.3037 10.0634 84.3037 6.65927C84.3037 3.25508 87.0276 0.531738 90.4324 0.531738C93.8372 0.531738 96.561 3.25508 96.561 6.65927Z" fill="#E8412C"/>
<path d="M112.768 6.7955C112.768 10.1997 110.044 12.923 106.639 12.923C103.234 12.923 100.51 10.1997 100.51 6.7955C100.51 3.39131 103.234 0.667969 106.639 0.667969C110.044 0.667969 112.768 3.39131 112.768 6.7955Z" fill="#E8412C"/>
<path d="M128.975 6.7955C128.975 10.1997 126.251 12.923 122.846 12.923C119.441 12.923 116.717 10.1997 116.717 6.7955C116.717 3.39131 119.441 0.667969 122.846 0.667969C126.251 0.667969 128.975 3.39131 128.975 6.7955Z" fill="#E8412C"/>
<path d="M64.2832 22.8634C64.2832 26.2675 61.5593 28.9909 58.1545 28.9909C54.7497 28.9909 52.0259 26.2675 52.0259 22.8634C52.0259 19.4592 54.7497 16.7358 58.1545 16.7358C61.5593 16.7358 64.2832 19.4592 64.2832 22.8634Z" fill="#0079C2"/>
<path d="M80.3535 22.8634C80.3535 26.2675 77.6296 28.9909 74.2248 28.9909C70.82 28.9909 68.0962 26.2675 68.0962 22.8634C68.0962 19.4592 70.82 16.7358 74.2248 16.7358C77.6296 16.7358 80.3535 19.4592 80.3535 22.8634Z" fill="#0079C2"/>
<path d="M96.561 22.8634C96.561 26.2675 93.8372 28.9909 90.4324 28.9909C87.0276 28.9909 84.3037 26.2675 84.3037 22.8634C84.3037 19.4592 87.0276 16.7358 90.4324 16.7358C93.8372 16.7358 96.561 19.4592 96.561 22.8634Z" fill="#E8412C"/>
<path d="M112.768 22.9996C112.768 26.4038 110.044 29.1271 106.639 29.1271C103.234 29.1271 100.51 26.4038 100.51 22.9996C100.51 19.5954 103.234 16.8721 106.639 16.8721C110.044 16.8721 112.768 19.5954 112.768 22.9996Z" fill="#0079C2"/>
<path d="M128.975 22.9996C128.975 26.4038 126.251 29.1271 122.846 29.1271C119.441 29.1271 116.717 26.4038 116.717 22.9996C116.717 19.5954 119.441 16.8721 122.846 16.8721C126.251 16.8721 128.975 19.5954 128.975 22.9996Z" fill="#0079C2"/>
<path d="M64.2832 39.067C64.2832 42.4712 61.5593 45.1945 58.1545 45.1945C54.7497 45.1945 52.0259 42.4712 52.0259 39.067C52.0259 35.6628 54.7497 32.9395 58.1545 32.9395C61.5593 32.9395 64.2832 35.6628 64.2832 39.067Z" fill="#0079C2"/>
<path d="M80.3535 39.067C80.3535 42.4712 77.6296 45.1945 74.2248 45.1945C70.82 45.1945 68.0962 42.4712 68.0962 39.067C68.0962 35.6628 70.82 32.9395 74.2248 32.9395C77.6296 32.9395 80.3535 35.6628 80.3535 39.067Z" fill="#0079C2"/>
<path d="M96.561 39.067C96.561 42.4712 93.8372 45.1945 90.4324 45.1945C87.0276 45.1945 84.3037 42.4712 84.3037 39.067C84.3037 35.6628 87.0276 32.9395 90.4324 32.9395C93.8372 32.9395 96.561 35.6628 96.561 39.067Z" fill="#E8412C"/>
<path d="M112.768 39.067C112.768 42.4712 110.044 45.1945 106.639 45.1945C103.234 45.1945 100.51 42.4712 100.51 39.067C100.51 35.6628 103.234 32.9395 106.639 32.9395C110.044 33.0756 112.768 35.799 112.768 39.067Z" fill="#0079C2"/>
<path d="M128.975 39.067C128.975 42.4712 126.251 45.1945 122.846 45.1945C119.441 45.1945 116.717 42.4712 116.717 39.067C116.717 35.6628 119.441 32.9395 122.846 32.9395C126.251 32.9395 128.975 35.799 128.975 39.067Z" fill="#0079C2"/>
<path d="M64.2832 55.1349C64.2832 58.539 61.5593 61.2624 58.1545 61.2624C54.7497 61.2624 52.0259 58.539 52.0259 55.1349C52.0259 51.7307 54.7497 49.0073 58.1545 49.0073C61.5593 49.1435 64.2832 51.8668 64.2832 55.1349Z" fill="#0079C2"/>
<path d="M80.3535 55.1349C80.3535 58.539 77.6296 61.2624 74.2248 61.2624C70.82 61.2624 68.0962 58.539 68.0962 55.1349C68.0962 51.7307 70.82 49.0073 74.2248 49.0073C77.6296 49.1435 80.3535 51.8668 80.3535 55.1349Z" fill="#0079C2"/>
<path d="M96.561 55.1349C96.561 58.539 93.8372 61.2624 90.4324 61.2624C87.0276 61.2624 84.3037 58.539 84.3037 55.1349C84.3037 51.7307 87.0276 49.0073 90.4324 49.0073C93.8372 49.1435 96.561 51.8668 96.561 55.1349Z" fill="#E8412C"/>
<path d="M112.768 55.2711C112.768 58.6753 110.044 61.3986 106.639 61.3986C103.234 61.3986 100.51 58.6753 100.51 55.2711C100.51 51.8669 103.234 49.1436 106.639 49.1436C110.044 49.2797 112.768 52.0031 112.768 55.2711Z" fill="#0079C2"/>
<path d="M128.975 55.2711C128.975 58.6753 126.251 61.3986 122.846 61.3986C119.441 61.3986 116.717 58.6753 116.717 55.2711C116.717 51.8669 119.441 49.1436 122.846 49.1436C126.251 49.1436 128.975 52.0031 128.975 55.2711Z" fill="#0079C2"/>
<path d="M64.2832 71.339C64.2832 74.7431 61.5593 77.4665 58.1545 77.4665C54.7497 77.4665 52.0259 74.7431 52.0259 71.339C52.0259 67.9348 54.7497 65.2114 58.1545 65.2114C61.5593 65.2114 64.2832 68.0709 64.2832 71.339Z" fill="#0079C2"/>
<path d="M80.3535 71.339C80.3535 74.7431 77.6296 77.4665 74.2248 77.4665C70.82 77.4665 68.0962 74.7431 68.0962 71.339C68.0962 67.9348 70.82 65.2114 74.2248 65.2114C77.6296 65.2114 80.3535 68.0709 80.3535 71.339Z" fill="#0079C2"/>
<path d="M96.561 71.339C96.561 74.7431 93.8372 77.4665 90.4324 77.4665C87.0276 77.4665 84.3037 74.7431 84.3037 71.339C84.3037 67.9348 87.0276 65.2114 90.4324 65.2114C93.8372 65.2114 96.561 68.0709 96.561 71.339Z" fill="#E8412C"/>
<path d="M112.768 71.4747C112.768 74.8789 110.044 77.6023 106.639 77.6023C103.234 77.6023 100.51 74.8789 100.51 71.4747C100.51 68.0706 103.234 65.3472 106.639 65.3472C110.044 65.3472 112.768 68.0706 112.768 71.4747Z" fill="#0079C2"/>
<path d="M128.975 71.4747C128.975 74.8789 126.251 77.6023 122.846 77.6023C119.441 77.6023 116.717 74.8789 116.717 71.4747C116.717 68.0706 119.441 65.3472 122.846 65.3472C126.251 65.3472 128.975 68.2067 128.975 71.4747Z" fill="#0079C2"/>
<path d="M180.455 103.61C178.957 103.61 177.323 103.61 175.824 103.61C175.552 103.61 175.416 103.61 175.28 103.882C173.918 106.197 172.42 108.784 171.058 111.099C171.058 111.099 171.058 111.235 170.922 111.235C170.922 111.235 170.785 111.235 170.785 111.099C169.423 108.784 167.925 106.197 166.563 103.882C166.427 103.61 166.291 103.61 166.019 103.61C164.521 103.61 162.886 103.61 161.388 103.61C161.116 103.61 160.979 103.746 160.979 104.018C160.979 109.874 160.979 115.729 160.979 121.448C160.979 121.856 161.116 121.856 161.524 121.856C162.75 121.856 163.976 121.856 165.201 121.856C165.61 121.856 165.746 121.72 165.746 121.312C165.746 117.771 165.746 114.231 165.746 110.691C165.746 110.554 165.746 110.146 165.882 110.146C166.019 110.146 166.019 110.282 166.019 110.282C167.108 112.188 168.198 114.231 169.287 116.137C169.423 116.273 169.423 116.41 169.696 116.41C170.104 116.41 170.649 116.41 171.058 116.41C171.466 116.41 172.011 116.41 172.42 116.41C172.692 116.41 172.692 116.273 172.828 116.137C173.918 114.231 175.007 112.188 176.097 110.282L176.233 110.146C176.369 110.146 176.369 110.554 176.369 110.691C176.369 114.231 176.369 117.771 176.369 121.312C176.369 121.72 176.505 121.856 176.914 121.856C178.14 121.856 179.365 121.856 180.591 121.856C181 121.856 181 121.72 181 121.448C181 115.593 181 109.737 181 104.018C180.864 103.746 180.727 103.61 180.455 103.61Z" fill="#E8412C"/>
<path d="M48.3485 104.155C48.3485 103.746 48.2123 103.61 47.8037 103.61C45.3523 103.61 42.7646 103.61 40.3132 103.61C37.8617 103.61 35.2741 103.61 32.8226 103.61C32.414 103.61 32.2778 103.746 32.2778 104.155C32.2778 105.244 32.2778 106.333 32.2778 107.286C32.2778 107.695 32.414 107.831 32.8226 107.831C34.3207 107.831 35.8188 107.831 37.317 107.831C37.7255 107.831 37.8617 107.967 37.8617 108.376C37.8617 112.733 37.8617 117.09 37.8617 121.448C37.8617 121.992 37.9979 121.992 38.4065 121.992C39.0874 121.992 39.6322 121.992 40.3132 121.992C40.9941 121.992 41.5389 121.992 42.2198 121.992C42.6284 121.992 42.7646 121.856 42.7646 121.448C42.7646 117.09 42.7646 112.733 42.7646 108.376C42.7646 107.967 42.9008 107.831 43.3094 107.831C44.8075 107.831 46.3056 107.831 47.8037 107.831C48.2123 107.831 48.3485 107.695 48.3485 107.286C48.3485 106.333 48.3485 105.244 48.3485 104.155Z" fill="#0079C2"/>
<path d="M65.5082 104.155C65.5082 103.746 65.372 103.61 64.9634 103.61C62.5119 103.61 59.9243 103.61 57.4728 103.61C55.0214 103.61 52.4337 103.61 49.9823 103.61C49.5737 103.61 49.4375 103.746 49.4375 104.155C49.4375 105.244 49.4375 106.333 49.4375 107.286C49.4375 107.695 49.5737 107.831 49.9823 107.831C51.4804 107.831 52.9785 107.831 54.4766 107.831C54.8852 107.831 55.0214 107.967 55.0214 108.376C55.0214 112.733 55.0214 117.09 55.0214 121.448C55.0214 121.992 55.1575 121.992 55.5661 121.992C56.2471 121.992 56.7919 121.992 57.4728 121.992C58.1538 121.992 58.6986 121.992 59.3796 121.992C59.7881 121.992 59.9243 121.856 59.9243 121.448C59.9243 117.09 59.9243 112.733 59.9243 108.376C59.9243 107.967 60.0605 107.831 60.4691 107.831C61.9672 107.831 63.4653 107.831 64.9634 107.831C65.372 107.831 65.5082 107.695 65.5082 107.286C65.5082 106.333 65.5082 105.244 65.5082 104.155Z" fill="#0079C2"/>
<path d="M16.0707 104.155C16.0707 103.746 15.9345 103.61 15.5259 103.61C13.0745 103.61 10.4868 103.61 8.03537 103.61C5.58391 103.61 2.99626 103.61 0.544802 103.61C0.136225 103.61 0 103.746 0 104.155C0 105.244 0 106.333 0 107.286C0 107.695 0.136225 107.831 0.544802 107.831C2.04292 107.831 3.54101 107.831 5.03913 107.831C5.4477 107.831 5.58389 107.967 5.58389 108.376C5.58389 112.733 5.58389 117.09 5.58389 121.448C5.58389 121.992 5.72007 121.992 6.12865 121.992C6.80961 121.992 7.35441 121.992 8.03537 121.992C8.71633 121.992 9.26109 121.992 9.94205 121.992C10.3506 121.992 10.4868 121.856 10.4868 121.448C10.4868 117.09 10.4868 112.733 10.4868 108.376C10.4868 107.967 10.623 107.831 11.0316 107.831C12.5297 107.831 14.0278 107.831 15.5259 107.831C15.9345 107.831 16.0707 107.695 16.0707 107.286C15.9345 106.333 15.9345 105.244 16.0707 104.155Z" fill="#0079C2"/>
<path d="M120.394 112.869C120.394 110.01 120.394 107.15 120.394 104.291C120.394 103.882 120.53 103.746 120.938 103.746C122.164 103.746 123.39 103.746 124.752 103.746C125.16 103.746 125.296 103.882 125.296 104.291C125.296 106.197 125.296 108.103 125.296 110.01C125.296 110.418 125.433 110.691 125.841 110.554C126.795 110.554 127.748 110.554 128.837 110.282C129.927 110.01 130.608 109.193 131.017 108.24C131.425 107.15 131.697 105.925 131.834 104.699C131.97 103.61 131.97 103.61 133.059 103.61C134.149 103.61 135.375 103.61 136.464 103.61C136.873 103.61 136.873 103.746 136.873 104.155C136.6 105.244 136.464 106.469 136.192 107.559C135.647 109.601 134.966 111.508 133.332 113.005C133.059 113.278 133.196 113.414 133.332 113.55C134.694 116.001 136.056 118.588 137.418 121.039C137.962 121.992 137.962 121.992 136.873 121.992C135.511 121.992 134.149 121.992 132.787 121.992C132.515 121.992 132.378 121.992 132.242 121.72C131.153 119.541 130.063 117.363 128.974 115.184C128.837 114.912 128.701 114.776 128.293 114.776C127.476 114.776 126.658 114.776 125.841 114.776C125.433 114.776 125.433 114.912 125.433 115.32C125.433 117.363 125.433 119.405 125.433 121.448C125.433 121.856 125.296 121.992 124.888 121.992C123.662 121.992 122.3 121.992 121.075 121.992C120.666 121.992 120.53 121.856 120.53 121.448C120.394 118.588 120.394 115.729 120.394 112.869Z" fill="#E8412C"/>
<path d="M103.643 112.869C103.643 110.009 103.643 107.15 103.643 104.29C103.643 103.882 103.779 103.746 104.187 103.746C108.273 103.746 112.359 103.746 116.308 103.746C116.717 103.746 116.853 103.882 116.853 104.29C116.853 105.243 116.853 106.197 116.853 107.15C116.853 107.694 116.717 107.694 116.308 107.694C113.857 107.694 111.406 107.694 109.09 107.694C108.546 107.694 108.409 107.831 108.409 108.375C108.409 109.056 108.409 109.873 108.409 110.554C108.409 110.962 108.545 110.963 108.818 110.963C110.997 110.963 113.176 110.963 115.355 110.963C116.036 110.963 116.036 110.963 116.036 111.643C116.036 112.46 116.036 113.413 116.036 114.231C116.036 114.639 115.9 114.775 115.491 114.775C113.312 114.775 111.269 114.775 109.09 114.775C108.546 114.775 108.409 114.911 108.409 115.456C108.409 116.273 108.409 116.954 108.409 117.771C108.409 118.179 108.545 118.316 108.954 118.316C111.542 118.316 113.993 118.316 116.581 118.316C116.989 118.316 117.126 118.452 117.126 118.86C117.126 119.813 117.126 120.767 117.126 121.856C117.126 122.264 117.126 122.401 116.717 122.401C112.495 122.401 108.273 122.401 104.051 122.401C103.643 122.401 103.506 122.264 103.506 121.856C103.643 118.588 103.643 115.728 103.643 112.869Z" fill="#0079C2"/>
<path d="M68.0962 112.869C68.0962 110.009 68.0962 107.15 68.0962 104.29C68.0962 103.882 68.2324 103.746 68.641 103.746C72.7268 103.746 76.8125 103.746 80.8983 103.746C81.3069 103.746 81.443 103.882 81.443 104.29C81.443 105.243 81.443 106.197 81.443 107.15C81.443 107.558 81.3069 107.694 80.8983 107.694C78.4468 107.694 75.9953 107.694 73.5439 107.694C73.1353 107.694 72.9992 107.831 72.9992 108.239C72.9992 108.92 72.9992 109.601 72.9992 110.282C72.9992 110.826 73.1353 110.826 73.5439 110.826C75.5868 110.826 77.7659 110.826 79.9449 110.826C80.6259 110.826 80.6259 110.826 80.6259 111.507C80.6259 112.46 80.6259 113.277 80.6259 114.231C80.6259 114.639 80.4897 114.639 80.0811 114.639C77.902 114.639 75.723 114.639 73.5439 114.639C73.1353 114.639 72.9992 114.775 72.9992 115.184C72.9992 116.001 72.9992 116.682 72.9992 117.499C72.9992 117.907 73.1353 118.179 73.5439 118.043C75.9953 118.043 78.583 118.043 81.0345 118.043C81.5792 118.043 81.7154 118.179 81.7154 118.724C81.7154 119.677 81.7154 120.63 81.7154 121.584C81.7154 121.856 81.5792 121.992 81.3069 121.992C77.0849 121.992 72.7267 121.992 68.5048 121.992C68.0962 121.992 68.0962 121.72 68.0962 121.447C68.0962 118.588 68.0962 115.728 68.0962 112.869Z" fill="#0079C2"/>
<path d="M157.029 110.146C156.621 108.512 155.94 107.014 154.714 105.788C152.807 104.018 150.628 103.337 148.041 103.337C146.406 103.337 145.044 103.61 143.546 104.291C140.822 105.652 139.188 107.967 138.643 110.827C138.371 112.188 138.371 113.55 138.643 115.048C138.916 116.682 139.597 118.18 140.686 119.541C142.32 121.448 144.5 122.265 146.815 122.401C149.402 122.673 151.854 122.129 153.897 120.495C155.803 118.997 156.757 117.09 157.165 114.775C157.438 113.141 157.302 111.644 157.029 110.146ZM152.126 114.503C151.445 117.09 149.675 118.588 146.951 118.043C145.453 117.771 144.5 116.818 143.955 115.32C143.682 114.503 143.546 113.686 143.546 113.005C143.546 110.963 143.955 109.329 145.453 108.239C147.496 106.742 151.037 107.286 151.99 110.282C152.399 111.78 152.399 113.141 152.126 114.503Z" fill="#E8412C"/>
<path d="M33.9122 121.72C33.3674 120.222 32.8226 118.588 32.1417 117.09C31.3245 114.911 30.5074 112.869 29.6902 110.69C28.8731 108.512 28.0559 106.197 27.2388 104.018C27.1026 103.746 26.9664 103.746 26.8302 103.746C26.013 103.746 25.1959 103.746 24.3788 103.746C23.5616 103.746 22.7444 103.746 21.9273 103.746C21.6549 103.746 21.5187 103.746 21.3825 104.018C20.8377 105.516 20.293 106.877 19.612 108.375C18.6587 110.963 17.5691 113.55 16.6158 116.137C15.9348 118.043 15.1176 119.813 14.3005 121.72C14.1643 121.992 14.3005 122.128 14.5729 122.128C15.9348 122.128 17.4329 122.128 18.7949 122.128C18.9311 122.128 19.0672 122.128 19.2034 121.856C19.612 120.63 20.0206 119.541 20.4291 118.452C20.5653 118.179 20.7015 117.907 21.1101 118.043C23.153 118.043 25.1959 118.043 27.1026 118.043C27.5112 118.043 27.6474 118.179 27.7836 118.588C28.1921 119.677 28.6007 120.903 28.8731 121.992C28.8731 122.128 29.0093 122.264 29.1455 122.264C30.6436 122.264 32.1417 122.264 33.6398 122.264C33.9122 121.992 33.9122 121.856 33.9122 121.72ZM25.6045 113.958C24.5149 113.958 23.2892 113.958 22.1997 113.958C21.9273 113.958 21.7911 113.958 21.9273 113.55C22.6082 111.643 23.2892 109.601 24.1064 107.558C24.5149 108.92 24.9235 110.145 25.3321 111.235C25.6045 111.916 25.7406 112.733 26.013 113.414C26.1492 113.958 26.1492 113.958 25.6045 113.958Z" fill="#0079C2"/>
<path d="M87.7079 107.558C87.7079 114.775 86.7545 118.179 84.4393 118.043C84.1669 118.043 83.8945 118.179 83.8945 118.452V121.584C83.8945 121.856 84.1669 122.128 84.4393 122.128C88.9336 121.992 92.066 119.405 92.2022 108.375C92.2022 108.103 92.4746 107.831 92.747 107.831H95.3346C95.607 107.831 95.8794 108.103 95.8794 108.375V121.447C95.8794 121.72 96.1518 121.992 96.4241 121.992H100.101C100.374 121.992 100.646 121.72 100.646 121.447V104.29C100.646 104.018 100.374 103.746 100.101 103.746H88.7974C88.2526 103.746 87.7079 104.29 87.7079 104.835V107.558Z" fill="#0079C2"/>
</svg>
