<svg width="191" height="69" viewBox="0 0 191 69" fill="none" xmlns="http://www.w3.org/2000/svg">
<g clip-path="url(#clip0_111_792)">
<path fill-rule="evenodd" clip-rule="evenodd" d="M13.409 0.42395L10.1797 9.2695H54.93L58.1592 0.42395H13.409ZM8.56407 13.6903L5.33482 22.5338H50.0851L53.3143 13.6903H8.56407ZM3.72925 26.9566L0.5 35.8001H45.2503L48.4775 26.9566H3.72925Z" fill="#009FDF"/>
<mask id="mask0_111_792" style="mask-type:alpha" maskUnits="userSpaceOnUse" x="67" y="13" width="124" height="56">
<path d="M67.6396 68.0447H190.138V13.8601H67.6396V68.0447Z" fill="white"/>
</mask>
<g mask="url(#mask0_111_792)">
<path fill-rule="evenodd" clip-rule="evenodd" d="M95.6362 39.1707V39.3574C97.6813 40.108 99.6348 41.4206 100.658 42.2635C103.821 44.8887 105.217 48.3569 105.217 52.8566C105.217 60.2646 101.31 65.6073 94.8914 67.2952C92.9379 67.8572 90.8928 68.0459 87.0773 68.0459H67.6396V13.8601H84.847C88.3817 13.8601 90.7992 14.0467 92.9379 14.6087C99.1709 16.2966 103.263 20.6097 103.263 27.4517C103.263 31.1085 101.961 34.2034 99.822 36.2646C98.8921 37.2018 97.5897 38.3278 95.6362 39.1707ZM78.4288 44.8887V59.1387H85.8706C88.1009 59.1387 90.148 58.952 91.6376 57.5451C93.1251 56.1381 93.7763 54.3579 93.7763 52.0137C93.7763 50.2335 93.3103 48.5456 92.3803 47.3273C90.7992 45.3584 88.8456 44.8887 85.4982 44.8887H78.4288ZM78.3352 35.5139H84.381C86.2409 35.5139 87.1709 35.5139 88.1009 35.2329C90.614 34.4823 92.1951 32.2345 92.1951 29.1396C92.1951 25.4848 90.5204 23.8892 88.1009 23.1406C87.0773 22.8596 86.0558 22.7653 84.0086 22.7653H78.3352V35.5139ZM121.4 68.0459V22.9519H105.868V13.8601H149.027L145.958 22.9519H132.19V68.0459H121.4ZM152.374 68.0459V13.8601H187.348L184.28 22.9519H163.072V34.952H171.722C178.698 34.952 182.326 36.6399 184.837 38.7954C186.791 40.4833 190.138 44.2324 190.138 51.6404C190.138 58.952 186.697 62.9821 183.814 65.0454C180.466 67.3875 176.932 68.0459 169.769 68.0459H152.374ZM163.072 58.952H171.165C174.233 58.952 176.093 58.2014 177.396 56.5135C178.047 55.6705 178.977 54.1692 178.977 51.3574C178.977 48.5456 178.047 46.5767 176.187 45.1697C175.072 44.3268 173.582 43.8592 171.071 43.8592H163.072V58.952Z" fill="#0A2973"/>
</g>
</g>
<defs>
<clipPath id="clip0_111_792">
<rect width="190" height="68.1522" fill="white" transform="translate(0.5 0.42395)"/>
</clipPath>
</defs>
</svg>
